<svg width="175" height="159" viewBox="0 0 175 159" fill="none" xmlns="http://www.w3.org/2000/svg">
<g clip-path="url(#clip0_65_3887)">
<path d="M161.561 26H12.4386C6.67352 26 2 30.018 2 34.9744V117.026C2 121.982 6.67352 126 12.4386 126H161.561C167.326 126 172 121.982 172 117.026V34.9744C172 30.018 167.326 26 161.561 26Z" fill="#006FCF" stroke="#F3F3F3" stroke-width="13.7931"/>
<path fill-rule="evenodd" clip-rule="evenodd" d="M40.8713 104V81.4926H65.651L68.3095 84.8258L71.056 81.4926H161V102.448C161 102.448 158.648 103.978 155.927 104H106.123L103.126 100.452V104H93.3037V97.9435C93.3037 97.9435 91.9619 98.789 89.0612 98.789H85.7178V104H70.8458L68.191 100.595L65.4955 104H40.8713ZM12 64.5288L17.5752 52H27.217L30.381 59.0182V52H42.3665L44.2503 57.0724L46.0762 52H99.8792V54.5501C99.8792 54.5501 102.708 52 107.356 52L124.813 52.0588L127.922 58.9851V52H137.953L140.713 55.9785V52H150.835V74.5076H140.713L138.068 70.5161V74.5076H123.331L121.849 70.9595H117.887L116.43 74.5076H106.436C102.436 74.5076 99.8792 72.0094 99.8792 72.0094V74.5076H84.811L81.8203 70.9595V74.5076H25.7886L24.3077 70.9595H20.3586L18.8882 74.5076H12V64.5288ZM12.0288 71.6275L19.5485 54.7747H25.2495L32.762 71.6275H27.7584L26.3782 68.253H18.312L16.9245 71.6275H12.0288ZM24.7894 64.5942L22.3307 58.6968L19.8648 64.5942H24.7894ZM33.2797 71.6248V54.7717L40.2369 54.7969L44.2833 65.6623L48.2329 54.7717H55.1344V71.6248H50.7636V59.2068L46.1301 71.6248H42.2969L37.6507 59.2068V71.6248H33.2797ZM58.1252 71.6248V54.7717H72.3883V58.5415H62.542V61.4243H72.1582V64.9722H62.542V67.966H72.3883V71.6248H58.1252ZM74.9187 71.6275V54.7747H84.6457C87.8685 54.7747 90.7563 56.6957 90.7563 60.2422C90.7563 63.274 88.3216 65.2266 85.9613 65.4185L91.7126 71.6275H86.3711L81.1301 65.6405H79.2896V71.6275H74.9187ZM84.2861 58.5445H79.2896V62.0924H84.351C85.227 62.0924 86.3565 61.438 86.3565 60.3184C86.3565 59.4482 85.4848 58.5445 84.2861 58.5445ZM97.0036 71.6248H92.5407V54.7717H97.0036V71.6248ZM107.586 71.6248H106.623C101.962 71.6248 99.1316 68.0851 99.1316 63.2677C99.1316 58.3311 101.93 54.7717 107.816 54.7717H112.647V58.7635H107.639C105.25 58.7635 103.56 60.5609 103.56 63.3092C103.56 66.5731 105.492 67.9438 108.276 67.9438H109.426L107.586 71.6248ZM109.577 71.6275L117.097 54.7747H122.798L130.311 71.6275H125.307L123.927 68.253H115.861L114.473 71.6275H109.577ZM122.338 64.5942L119.879 58.6968L117.413 64.5942H122.338ZM130.821 71.6248V54.7717H136.378L143.474 65.3603V54.7717H147.845V71.6248H142.467L135.192 60.7591V71.6248H130.821ZM43.862 101.117V84.2644H58.1252V88.0342H48.2789V90.917H57.895V94.4649H48.2789V97.4586H58.1252V101.117H43.862ZM113.751 101.117V84.2644H128.014V88.0342H118.168V90.917H127.738V94.4649H118.168V97.4586H128.014V101.117H113.751ZM58.6788 101.117L65.6234 92.7948L58.5132 84.2644H64.0202L68.2545 89.5378L72.5031 84.2644H77.7944L70.7778 92.6909L77.7354 101.117H72.2294L68.1179 95.9272L64.1064 101.117H58.6788ZM78.2544 101.12V84.2674H87.9094C91.871 84.2674 94.1856 86.7285 94.1856 89.9358C94.1856 93.8075 91.2347 95.7982 87.3414 95.7982H82.7404V101.12H78.2544ZM87.5859 88.0785H82.7404V91.9592H87.5716C88.8481 91.9592 89.7427 91.1436 89.7427 90.0189C89.7427 88.8217 88.8436 88.0785 87.5859 88.0785ZM96.0835 101.117V84.2644H105.81C109.033 84.2644 111.921 86.1854 111.921 89.7319C111.921 92.7636 109.486 94.7163 107.126 94.9085L112.877 101.117H107.536L102.295 95.1301H100.454V101.117H96.0835ZM105.451 88.0342H100.454V91.582H105.515C106.392 91.582 107.521 90.928 107.521 89.8081C107.521 88.9378 106.649 88.0342 105.451 88.0342ZM130.039 101.117V97.4586H138.787C140.081 97.4586 140.641 96.7843 140.641 96.045C140.641 95.3365 140.083 94.6201 138.787 94.6201H134.833C131.398 94.6201 129.484 92.6021 129.484 89.5725C129.484 86.8704 131.236 84.2644 136.342 84.2644H144.854L143.014 88.0563H135.652C134.245 88.0563 133.812 88.7681 133.812 89.4479C133.812 90.1465 134.347 90.917 135.422 90.917H139.563C143.393 90.917 145.055 93.0113 145.055 95.7539C145.055 98.7023 143.203 101.117 139.355 101.117H130.039ZM145.441 101.117V97.4586H154.188C155.483 97.4586 156.043 96.7843 156.043 96.045C156.043 95.3365 155.484 94.6201 154.188 94.6201H150.235C146.799 94.6201 144.886 92.6021 144.886 89.5725C144.886 86.8704 146.638 84.2644 151.744 84.2644H160.256L158.416 88.0563H151.054C149.647 88.0563 149.214 88.7681 149.214 89.4479C149.214 90.1465 149.749 90.917 150.824 90.917H154.965C158.795 90.917 160.457 93.0113 160.457 95.7539C160.457 98.7023 158.605 101.117 154.756 101.117H145.441Z" fill="white"/>
</g>
<defs>
<clipPath id="clip0_65_3887">
<rect width="175" height="159" fill="white"/>
</clipPath>
</defs>
</svg>
