<svg width="19" height="17" viewBox="0 0 19 17" fill="none" xmlns="http://www.w3.org/2000/svg">
<path d="M4.518 11.4295C4.20884 11.7061 4.20884 12.1546 4.518 12.4312L8.39099 15.8931C9.00944 16.4459 10.0115 16.4457 10.6297 15.8927L14.5012 12.4287C14.8104 12.1521 14.8104 11.7035 14.5012 11.4269C14.192 11.1503 13.6907 11.1503 13.3816 11.4269L10.068 14.3917C9.75883 14.6684 9.25755 14.6684 8.9484 14.3917L5.63759 11.4295C5.32843 11.1529 4.82717 11.1529 4.518 11.4295Z" fill="#333333"/>
<path d="M14.5012 5.58637C14.8104 5.30975 14.8104 4.86126 14.5012 4.58463L10.6282 1.12269C10.0097 0.569913 9.0077 0.570133 8.38957 1.12319L4.51801 4.58719C4.20884 4.86381 4.20884 5.31231 4.51801 5.58892C4.82717 5.86555 5.32843 5.86555 5.63759 5.58892L8.95126 2.6241C9.2604 2.34747 9.76169 2.34747 10.0708 2.6241L13.3816 5.58637C13.6907 5.86299 14.192 5.86299 14.5012 5.58637Z" fill="#333333"/>
</svg>
