<svg width="23" height="22" viewBox="0 0 23 22" fill="none" xmlns="http://www.w3.org/2000/svg">
<path fill-rule="evenodd" clip-rule="evenodd" d="M16.6126 19.5904H6.35839C5.79725 19.5904 5.31874 19.1735 5.22694 18.6031L3.8568 10.1424H19.3001L17.7406 18.629C17.6373 19.1865 17.1645 19.5904 16.6126 19.5904ZM19.5078 7.78029L15.4605 0.590395C15.1449 0.0306064 14.4495 -0.162984 13.9033 0.15825C13.3513 0.481841 13.162 1.2058 13.4799 1.77033L16.857 7.78029H6.09216L9.47505 1.77484C9.79061 1.21269 9.60586 0.494759 9.06194 0.166431L9.05161 0.160507C8.50424 -0.16781 7.80082 0.0236127 7.4841 0.588138L3.44255 7.78029H1.14752C0.51294 7.78029 0 8.30945 0 8.96136C0 9.61328 0.51294 10.1424 1.14752 10.1424H1.52964L3.12239 19.9791C3.30714 21.1176 4.26417 21.9525 5.38644 21.9525H17.5627C18.685 21.9525 19.6432 21.1176 19.8268 19.9791L21.4195 10.1424H21.8028C22.4362 10.1424 22.9503 9.61328 22.9503 8.96136C22.9503 8.30945 22.4362 7.78029 21.8028 7.78029H19.5078Z" fill="black"/>
</svg>
