<svg width="50" height="50" viewBox="0 0 50 50" fill="none" xmlns="http://www.w3.org/2000/svg">
<g clip-path="url(#clip0_59_349)">
<path d="M30.2086 50C29.6425 50.0008 29.087 49.8466 28.6024 49.5542L18.1857 43.3042C17.7227 43.0268 17.3395 42.6342 17.0734 42.1647C16.8072 41.6952 16.6672 41.1647 16.667 40.625V29.8646L4.23778 14.6563C2.8383 13.0508 2.07239 10.9901 2.08362 8.86042C2.08637 6.51133 3.02077 4.25925 4.68182 2.5982C6.34287 0.937148 8.59495 0.00275682 10.944 0L39.0565 0C40.7645 0.000621753 42.4359 0.49475 43.8696 1.42293C45.3033 2.35111 46.4383 3.67381 47.138 5.23186C47.8377 6.78992 48.0723 8.51697 47.8135 10.2052C47.5547 11.8934 46.8137 13.4709 45.6795 14.7479L33.3336 29.9625V46.875C33.3336 47.7038 33.0044 48.4987 32.4183 49.0847C31.8323 49.6708 31.0374 50 30.2086 50ZM22.917 38.8542L27.0836 41.3542V28.8542C27.0831 28.1366 27.3295 27.4407 27.7815 26.8833L40.917 10.7021C41.3898 10.2045 41.6577 9.54682 41.667 8.86042C41.6659 8.16843 41.3905 7.5051 40.9012 7.01579C40.4119 6.52648 39.7485 6.2511 39.0565 6.25H10.944C10.4409 6.2505 9.94857 6.39628 9.52628 6.66983C9.10398 6.94338 8.76966 7.33306 8.56349 7.79204C8.35733 8.25101 8.28809 8.75976 8.36409 9.25714C8.4401 9.75452 8.65812 10.2194 8.99195 10.5958L22.2128 26.7729C22.6684 27.3311 22.9172 28.0295 22.917 28.75V38.8542Z" fill="black"/>
</g>
<defs>
<clipPath id="clip0_59_349">
<rect width="50" height="50" fill="white"/>
</clipPath>
</defs>
</svg>
