<svg width="131" height="130" viewBox="0 0 131 130" fill="none" xmlns="http://www.w3.org/2000/svg">
<g clip-path="url(#clip0_65_3880)">
<path d="M85.1221 23.2081H46.1025V86.3666H85.1221V23.2081Z" fill="#FF5F00"/>
<path d="M50.0397 54.7874C50.041 48.7115 51.4275 42.7147 54.0952 37.2459C56.763 31.7771 60.6429 26.9781 65.4445 23.2082C59.4731 18.5491 52.3012 15.6513 44.7486 14.8461C37.196 14.0409 29.5675 15.3607 22.7351 18.6548C15.9027 21.9489 10.1421 27.0842 6.11185 33.4738C2.08161 39.8634 -0.0556641 47.2494 -0.0556641 54.7874C-0.0556641 62.3255 2.08161 69.7115 6.11185 76.1011C10.1421 82.4906 15.9027 87.626 22.7351 90.92C29.5675 94.2141 37.196 95.534 44.7486 94.7288C52.3012 93.9236 59.4731 91.0258 65.4445 86.3667C60.6429 82.5968 56.763 77.7977 54.0952 72.329C51.4275 66.8602 50.041 60.8633 50.0397 54.7874Z" fill="#EB001B"/>
<path d="M131.003 54.7873C131.009 62.3199 128.878 69.702 124.854 76.0892C120.83 82.4764 115.076 87.6109 108.25 90.9054C101.424 94.1999 93.8018 95.5213 86.2544 94.7187C78.7071 93.916 71.5398 91.0216 65.5723 86.3666C70.3749 82.5976 74.2557 77.7988 76.9236 72.3298C79.5915 66.8608 80.9774 60.8635 80.9774 54.7873C80.9774 48.7112 79.5915 42.7138 76.9236 37.2448C74.2557 31.7758 70.3749 26.977 65.5723 23.2081C71.5398 18.553 78.7071 15.6586 86.2544 14.8559C93.8018 14.0533 101.424 15.3748 108.25 18.6693C115.076 21.9638 120.83 27.0983 124.854 33.4855C128.878 39.8727 131.009 47.2547 131.003 54.7873Z" fill="#F79E1B"/>
</g>
<defs>
<clipPath id="clip0_65_3880">
<rect width="131" height="130" fill="white"/>
</clipPath>
</defs>
</svg>
