<svg width="172" height="167" viewBox="0 0 172 167" fill="none" xmlns="http://www.w3.org/2000/svg">
<path d="M37.1295 66.3397C35.2774 65.1035 32.8606 64.4839 29.879 64.4839H18.336C17.422 64.4839 16.917 64.9277 16.8211 65.8143L12.1319 94.3927C12.0832 94.6734 12.1555 94.9301 12.3482 95.1635C12.5399 95.3975 12.7809 95.5138 13.0695 95.5138H18.5524C19.514 95.5138 20.0426 95.071 20.1396 94.1829L21.438 86.4784C21.4854 86.105 21.6545 85.8014 21.9432 85.5676C22.2316 85.3343 22.5924 85.1814 23.0252 85.1116C23.4581 85.0422 23.8663 85.0073 24.2517 85.0073C24.6361 85.0073 25.0928 85.0309 25.6227 85.0773C26.1512 85.124 26.4882 85.1467 26.6326 85.1467C30.7685 85.1467 34.0149 84.0152 36.372 81.7498C38.728 79.4852 39.9073 76.345 39.9073 72.3284C39.9073 69.5733 38.9807 67.577 37.1295 66.3389V66.3397ZM31.1778 74.921C30.9366 76.5556 30.3121 77.6291 29.3021 78.143C28.292 78.6575 26.8492 78.9131 24.9737 78.9131L22.5928 78.9833L23.8195 71.4883C23.9152 70.975 24.2277 70.7181 24.7571 70.7181H26.1283C28.0512 70.7181 29.4468 70.9873 30.3125 71.5234C31.1778 72.0608 31.4665 73.1938 31.1778 74.921Z" fill="#003087"/>
<path d="M158.943 64.4834H153.605C153.075 64.4834 152.763 64.7403 152.667 65.254L147.978 94.3933L147.905 94.5333C147.905 94.768 148.002 94.9887 148.194 95.199C148.386 95.4086 148.627 95.5139 148.916 95.5139H153.678C154.59 95.5139 155.095 95.0712 155.193 94.1833L159.882 65.5342V65.4646C159.882 64.811 159.568 64.484 158.943 64.484V64.4834Z" fill="#009CDE"/>
<path d="M94.4478 75.7623C94.4478 75.5294 94.3513 75.3071 94.1598 75.0973C93.9669 74.8873 93.7504 74.7817 93.5104 74.7817H87.9555C87.4254 74.7817 86.9927 75.0164 86.6567 75.4821L79.0095 86.4099L75.8355 75.9028C75.5938 75.156 75.0652 74.7817 74.2482 74.7817H68.8368C68.5958 74.7817 68.3793 74.8871 68.1881 75.0973C67.9951 75.3071 67.8994 75.5296 67.8994 75.7623C67.8994 75.8565 68.3685 77.2334 69.3061 79.8951C70.2437 82.5573 71.2539 85.4293 72.3361 88.5115C73.4184 91.5933 73.9829 93.2284 74.0314 93.414C70.0873 98.6445 68.116 101.447 68.116 101.82C68.116 102.427 68.4284 102.73 69.0538 102.73H74.6087C75.1378 102.73 75.5704 102.498 75.9076 102.03L94.3043 76.2522C94.3998 76.1595 94.4478 75.9968 94.4478 75.7621V75.7623Z" fill="#003087"/>
<path d="M146.176 74.7818H140.692C140.019 74.7818 139.611 75.5523 139.467 77.0934C138.215 75.2265 135.932 74.2913 132.612 74.2913C129.149 74.2913 126.203 75.5523 123.775 78.074C121.346 80.5959 120.132 83.5617 120.132 86.9702C120.132 89.7259 120.961 91.9205 122.62 93.5543C124.279 95.1898 126.504 96.006 129.294 96.006C130.689 96.006 132.107 95.7253 133.55 95.1654C134.993 94.6051 136.123 93.8583 136.942 92.924C136.942 92.9709 136.893 93.1805 136.797 93.5539C136.7 93.9281 136.653 94.209 136.653 94.3944C136.653 95.1425 136.965 95.515 137.591 95.515H142.569C143.482 95.515 144.012 95.0723 144.155 94.1842L147.114 75.9022C147.161 75.6219 147.089 75.3654 146.897 75.1316C146.704 74.8989 146.464 74.7818 146.176 74.7818ZM136.761 88.5811C135.534 89.7486 134.055 90.3323 132.324 90.3323C130.929 90.3323 129.8 89.9593 128.933 89.2116C128.067 88.4659 127.634 87.4384 127.634 86.1294C127.634 84.4029 128.236 82.9427 129.438 81.7519C130.639 80.561 132.132 79.9656 133.911 79.9656C135.257 79.9656 136.375 80.351 137.266 81.1211C138.155 81.8917 138.601 82.9545 138.601 84.3087C138.601 85.9896 137.987 87.4142 136.761 88.5811Z" fill="#009CDE"/>
<path d="M64.2199 74.7818H58.7371C58.0627 74.7818 57.6548 75.5523 57.5103 77.0934C56.2117 75.2265 53.927 74.2913 50.6566 74.2913C47.1937 74.2913 44.2474 75.5523 41.8189 78.074C39.3897 80.5959 38.1758 83.5617 38.1758 86.9702C38.1758 89.7259 39.0056 91.9205 40.6649 93.5543C42.3243 95.1898 44.5482 96.006 47.3381 96.006C48.6841 96.006 50.0797 95.7253 51.5223 95.1654C52.9651 94.6051 54.1195 93.8583 54.9853 92.924C54.7923 93.4841 54.6966 93.9746 54.6966 94.3944C54.6966 95.1425 55.0091 95.515 55.6344 95.515H60.6123C61.5254 95.515 62.0551 95.0723 62.1996 94.1842L65.1573 75.9022C65.2047 75.6219 65.1326 75.3654 64.941 75.1316C64.7485 74.8989 64.5083 74.7818 64.2199 74.7818ZM54.8051 88.6158C53.5784 89.7615 52.0747 90.3323 50.2963 90.3323C48.9006 90.3323 47.7824 89.9593 46.9414 89.2116C46.0992 88.4659 45.6787 87.4384 45.6787 86.1294C45.6787 84.4029 46.2796 82.9427 47.4825 81.7519C48.6841 80.561 50.1752 79.9656 51.9554 79.9656C53.3014 79.9656 54.4196 80.351 55.3103 81.1213C56.1994 81.8919 56.6448 82.9547 56.6448 84.3089C56.6448 86.0365 56.0316 87.4729 54.8051 88.6158Z" fill="#003087"/>
<path d="M119.086 66.3397C117.234 65.1035 114.818 64.4839 111.836 64.4839H100.364C99.4021 64.4839 98.8727 64.9277 98.7774 65.8143L94.088 94.3927C94.0392 94.6736 94.1114 94.9303 94.3043 95.1637C94.495 95.3975 94.7369 95.5138 95.0256 95.5138H100.941C101.518 95.5138 101.903 95.2106 102.095 94.6034L103.394 86.4784C103.442 86.105 103.61 85.8014 103.899 85.5676C104.188 85.3343 104.548 85.1816 104.982 85.1116C105.414 85.0422 105.822 85.0073 106.208 85.0073C106.592 85.0073 107.049 85.0309 107.578 85.0773C108.107 85.124 108.445 85.1467 108.588 85.1467C112.725 85.1467 115.971 84.0152 118.328 81.7498C120.685 79.4852 121.863 76.345 121.863 72.3284C121.863 69.5735 120.937 67.5772 119.086 66.3391V66.3397ZM111.691 77.8627C110.633 78.5631 109.046 78.9131 106.93 78.9131L104.621 78.9833L105.847 71.4883C105.943 70.975 106.255 70.7181 106.785 70.7181H108.083C109.141 70.7181 109.983 70.7648 110.609 70.8579C111.233 70.9521 111.836 71.2431 112.413 71.7334C112.99 72.2239 113.278 72.9362 113.278 73.8701C113.278 75.8313 112.749 77.162 111.691 77.8627Z" fill="#009CDE"/>
</svg>
