<svg width="50" height="50" viewBox="0 0 50 50" fill="none" xmlns="http://www.w3.org/2000/svg">
<path fill-rule="evenodd" clip-rule="evenodd" d="M41.4064 45H8.59543C6.82946 45 5.52538 43.2574 6.19145 41.6549C9.28191 34.2449 16.5423 30 24.9996 30C33.4595 30 40.7199 34.2449 43.8104 41.6549C44.4764 43.2574 43.1723 45 41.4064 45ZM14.7917 15C14.7917 9.48496 19.3725 4.99996 24.9996 4.99996C30.6293 4.99996 35.2076 9.48496 35.2076 15C35.2076 20.515 30.6293 25 24.9996 25C19.3725 25 14.7917 20.515 14.7917 15ZM49.8892 44.0899C48.0339 35.6924 42.2307 29.4949 34.5926 26.6824C38.64 23.4899 41.0006 18.3273 40.1329 12.6748C39.1274 6.11733 33.559 0.869942 26.8371 0.104942C17.558 -0.952558 9.68768 6.12246 9.68768 15C9.68768 19.725 11.9232 23.9349 15.4092 26.6824C7.76859 29.4949 1.96791 35.6924 0.11006 44.0899C-0.563666 47.1424 1.9475 50 5.13493 50H44.8643C48.0543 50 50.5655 47.1424 49.8892 44.0899Z" fill="black"/>
</svg>
