<svg width="171" height="149" viewBox="0 0 171 149" fill="none" xmlns="http://www.w3.org/2000/svg">
<g clip-path="url(#clip0_65_3875)">
<path d="M75.931 94.1642H64.1881L71.5272 54.8631H83.2713L75.931 94.1642ZM54.3093 54.8631L43.1141 81.8947L41.7894 76.0738L41.7906 76.0759L37.8393 58.4018C37.8393 58.4018 37.3615 54.8631 32.2689 54.8631H13.7611L13.5439 55.5286C13.5439 55.5286 19.2036 56.5547 25.8273 60.0207L36.0295 94.1652H48.2647L66.9474 54.8631H54.3093ZM146.673 94.1642H157.456L148.054 54.8621H138.615C134.256 54.8621 133.194 57.791 133.194 57.791L115.68 94.1642H127.922L130.37 88.3264H145.298L146.673 94.1642ZM133.751 80.2621L139.921 65.5547L143.393 80.2621H133.751ZM116.599 64.3141L118.274 55.8745C118.274 55.8745 113.103 54.1609 107.713 54.1609C101.885 54.1609 88.0467 56.3801 88.0467 67.1715C88.0467 77.3248 104.289 77.4509 104.289 82.7841C104.289 88.1172 89.7201 87.1616 84.9122 83.7986L83.1664 92.623C83.1664 92.623 88.4098 94.8423 96.421 94.8423C104.435 94.8423 116.524 91.2269 116.524 81.3869C116.524 71.1685 100.136 70.2171 100.136 65.7744C100.137 61.3306 111.573 61.9015 116.599 64.3141Z" fill="#2566AF"/>
<path d="M41.7906 76.0748L37.8393 58.4007C37.8393 58.4007 37.3615 54.8621 32.2689 54.8621H13.7611L13.5439 55.5275C13.5439 55.5275 22.4395 57.1339 30.9719 63.1525C39.1302 68.9051 41.7906 76.0748 41.7906 76.0748Z" fill="#E6A540"/>
</g>
<defs>
<clipPath id="clip0_65_3875">
<rect width="171" height="149" fill="white"/>
</clipPath>
</defs>
</svg>
